<svg xmlns="http://www.w3.org/2000/svg" width="24" height="24" viewBox="0 0 24 24"><title>icon/24/added-location-24</title><path d="M19.07 3.429c3.906 3.905 3.906 10.237 0 14.142l-5.402 5.403a2.36 2.36 0 0 1-3.336 0L4.929 17.57c-3.905-3.905-3.905-10.237 0-14.142s10.236-3.905 14.14 0M5.989 4.489a8.5 8.5 0 0 0-.2 11.815l.223.23 5.38 5.38a.86.86 0 0 0 1.214 0l5.403-5.404A8.5 8.5 0 0 0 5.989 4.489m9.982 3.23a.75.75 0 0 1 1.06 1.06l-5.75 5.75a.75.75 0 0 1-1.06 0l-2.75-2.75a.75.75 0 1 1 1.06-1.06l2.22 2.22Z"/></svg>