<svg xmlns="http://www.w3.org/2000/svg" width="16" height="16" viewBox="0 0 16 16"><title>icon/16/clear-16</title><path d="M13.25 1c.966 0 1.75.784 1.75 1.75v10.5A1.75 1.75 0 0 1 13.25 15H2.75A1.75 1.75 0 0 1 1 13.25V2.75C1 1.784 1.784 1 2.75 1zm0 1.5H2.75a.25.25 0 0 0-.25.25v10.5c0 .138.112.25.25.25h10.5a.25.25 0 0 0 .25-.25V2.75a.25.25 0 0 0-.25-.25m-2.511 2.255a.749.749 0 0 1 .325 1.276l-1.97 1.97 1.97 1.97a.749.749 0 1 1-1.06 1.06l-1.97-1.97-1.97 1.97a.749.749 0 1 1-1.06-1.06l1.97-1.97-1.97-1.97a.751.751 0 0 1 1.06-1.06l1.97 1.97 1.97-1.97a.75.75 0 0 1 .735-.216"/></svg>