<svg xmlns="http://www.w3.org/2000/svg" width="24" height="24" viewBox="0 0 24 24"><title>icon/24/clear-24</title><path d="M19.25 3c.966 0 1.75.784 1.75 1.75v14.5A1.75 1.75 0 0 1 19.25 21H4.75A1.75 1.75 0 0 1 3 19.25V4.75C3 3.784 3.784 3 4.75 3zm0 1.5H4.75a.25.25 0 0 0-.25.25v14.5c0 .138.112.25.25.25h14.5a.25.25 0 0 0 .25-.25V4.75a.25.25 0 0 0-.25-.25m-4.252 3.477a.75.75 0 1 1 1.06 1.06l-2.963 2.964 2.963 2.964a.75.75 0 0 1-1.06 1.06l-2.964-2.964-2.964 2.963a.75.75 0 1 1-1.06-1.06l2.963-2.963L8.01 9.037a.75.75 0 0 1 1.06-1.06l2.964 2.963Z"/></svg>