<svg xmlns="http://www.w3.org/2000/svg" width="16" height="16" viewBox="0 0 16 16"><path d="M13.124 3.932q-.052.053-.113.094-.062.04-.13.069-.068.028-.14.043t-.147.014-.146-.014-.141-.043-.13-.07-.113-.093-.094-.113q-.04-.062-.069-.13-.028-.068-.043-.14t-.014-.147.014-.146.043-.141.07-.13.093-.113.113-.094q.062-.04.13-.069.068-.028.14-.043t.147-.014.146.014.14.043q.07.028.13.07.062.04.114.093.052.052.094.113.04.062.069.13.028.068.042.14t.015.147-.015.146-.042.141-.07.13-.093.113m-1.057 9.194q-.052-.052-.093-.114-.042-.061-.07-.13-.028-.068-.042-.14t-.015-.146.015-.147.042-.14q.028-.069.07-.13.04-.062.093-.114.052-.052.113-.093t.13-.07.14-.042.147-.015.146.015.141.043.13.069.113.093q.053.052.094.114.04.061.069.13.028.068.043.14t.014.146-.014.147-.043.14q-.028.069-.07.13-.04.062-.093.114-.052.052-.113.093t-.13.07-.14.042-.147.015-.146-.015-.14-.043q-.07-.028-.13-.069-.062-.04-.114-.093M2.876 12.07q.052-.053.114-.094.061-.041.13-.07.068-.028.14-.042t.146-.014.147.014.14.043q.069.028.13.069.062.041.114.093.052.053.093.114t.07.13q.028.068.042.14t.014.147-.014.146-.043.14q-.028.069-.069.13-.041.062-.093.114t-.114.093-.13.07-.14.042-.147.015-.146-.015-.14-.042-.13-.07-.114-.093-.093-.114-.07-.13-.042-.14-.015-.146.015-.147.043-.14.069-.13q.04-.061.093-.114m1.047-9.187q.052.052.093.114.041.061.07.13.028.068.042.14t.014.146-.014.147-.043.14q-.028.069-.069.13-.041.062-.093.114t-.114.093-.13.07-.14.042-.147.015-.146-.015-.14-.043-.13-.069-.114-.093-.093-.114-.07-.13-.042-.14q-.015-.073-.015-.147 0-.073.015-.146.014-.072.043-.14t.069-.13.093-.114q.052-.052.114-.093.061-.041.13-.07.068-.028.14-.042t.146-.015.147.015.14.043q.069.028.13.069.062.04.114.093M8 13a.75.75 0 0 1 .75.75v1.5a.75.75 0 1 1-1.5 0v-1.5A.75.75 0 0 1 8 13M8 0a.75.75 0 0 1 .75.75v1.5a.75.75 0 1 1-1.5 0V.75A.75.75 0 0 1 8 0M.75 7.25h1.5a.75.75 0 1 1 0 1.5H.75a.75.75 0 0 1 0-1.5m13 0h1.5a.75.75 0 1 1 0 1.5h-1.5a.75.75 0 0 1 0-1.5"/></svg>