<svg xmlns="http://www.w3.org/2000/svg" width="24" height="24" viewBox="0 0 24 24"><title>icon/24/focus-location-24</title><path d="M1.75 18a.75.75 0 0 1 .75.75v2.5c0 .138.112.25.25.25h2.5a.75.75 0 1 1 0 1.5h-2.5A1.75 1.75 0 0 1 1 21.25v-2.5a.75.75 0 0 1 .75-.75m20.5 0a.75.75 0 0 1 .75.75v2.5A1.75 1.75 0 0 1 21.25 23h-2.5a.75.75 0 1 1 0-1.5h2.5a.25.25 0 0 0 .25-.25v-2.5a.75.75 0 0 1 .75-.75M12 15a.75.75 0 0 1 .75.75v3a.75.75 0 1 1-1.5 0v-3A.75.75 0 0 1 12 15m-3.75-3.75a.75.75 0 1 1 0 1.5h-3a.75.75 0 1 1 0-1.5zm10.5 0a.75.75 0 1 1 0 1.5h-3a.75.75 0 1 1 0-1.5zM12 4.5a.75.75 0 0 1 .75.75v3a.75.75 0 1 1-1.5 0v-3A.75.75 0 0 1 12 4.5M5.25 1a.75.75 0 0 1 0 1.5h-2.5a.25.25 0 0 0-.25.25v2.5a.75.75 0 0 1-1.5 0v-2.5C1 1.784 1.784 1 2.75 1zm16 0c.966 0 1.75.784 1.75 1.75v2.5a.75.75 0 1 1-1.5 0v-2.5a.25.25 0 0 0-.25-.25h-2.5a.75.75 0 1 1 0-1.5z"/></svg>