<svg xmlns="http://www.w3.org/2000/svg" width="16" height="16" viewBox="0 0 16 16"><title>icon/16/frameAll-16</title><path d="M1.75 11a.75.75 0 0 1 .75.75v1.5c0 .138.112.25.25.25h1.5a.75.75 0 1 1 0 1.5h-1.5A1.75 1.75 0 0 1 1 13.25v-1.5a.75.75 0 0 1 .75-.75m12.5 0a.75.75 0 0 1 .75.75v1.5A1.75 1.75 0 0 1 13.25 15h-1.5a.75.75 0 1 1 0-1.5h1.5a.25.25 0 0 0 .25-.25v-1.5a.75.75 0 0 1 .75-.75M2.75 2.5a.25.25 0 0 0-.25.25v1.5a.75.75 0 0 1-1.5 0v-1.5C1 1.784 1.784 1 2.75 1h1.5a.75.75 0 0 1 0 1.5zM7.25 1h1.5a.75.75 0 0 1 0 1.5h-1.5a.75.75 0 0 1 0-1.5m0 12.5h1.5a.75.75 0 1 1 0 1.5h-1.5a.75.75 0 1 1 0-1.5m-5.5-7a.75.75 0 0 1 .75.75v1.5a.75.75 0 0 1-1.5 0v-1.5a.75.75 0 0 1 .75-.75m12.5 0a.75.75 0 0 1 .75.75v1.5a.75.75 0 1 1-1.5 0v-1.5a.75.75 0 0 1 .75-.75M11 1.75a.75.75 0 0 1 .75-.75h1.5c.966 0 1.75.784 1.75 1.75v1.5a.75.75 0 1 1-1.5 0v-1.5a.25.25 0 0 0-.25-.25h-1.5a.75.75 0 0 1-.75-.75"/></svg>