<svg xmlns="http://www.w3.org/2000/svg" width="24" height="24" viewBox="0 0 24 24"><title>icon/24/frameAll-24</title><path d="M2.75 18a.75.75 0 0 1 .75.75v1.5c0 .138.112.25.25.25h1.5a.75.75 0 1 1 0 1.5h-1.5A1.75 1.75 0 0 1 2 20.25v-1.5a.75.75 0 0 1 .75-.75m6-16h1.75a.75.75 0 1 1 0 1.5H8.75a.75.75 0 0 1 0-1.5m5 0h1.75a.75.75 0 1 1 0 1.5h-1.75a.75.75 0 1 1 0-1.5m-5 18.5h1.75a.75.75 0 1 1 0 1.5H8.75a.75.75 0 1 1 0-1.5m5 0h1.75a.75.75 0 1 1 0 1.5h-1.75a.75.75 0 1 1 0-1.5m-11-12.75a.75.75 0 0 1 .75.75v1.75a.75.75 0 1 1-1.5 0V8.5a.75.75 0 0 1 .75-.75m18.5 0a.75.75 0 0 1 .75.75v1.75a.75.75 0 1 1-1.5 0V8.5a.75.75 0 0 1 .75-.75M2.75 13a.75.75 0 0 1 .75.75v1.75a.75.75 0 1 1-1.5 0v-1.75a.75.75 0 0 1 .75-.75m18.5 0a.75.75 0 0 1 .75.75v1.75a.75.75 0 1 1-1.5 0v-1.75a.75.75 0 0 1 .75-.75m0 5a.75.75 0 0 1 .75.75v1.5A1.75 1.75 0 0 1 20.25 22h-1.5a.75.75 0 1 1 0-1.5h1.5a.25.25 0 0 0 .25-.25v-1.5a.75.75 0 0 1 .75-.75M3.75 3.5a.25.25 0 0 0-.25.25v1.5a.75.75 0 0 1-1.5 0v-1.5C2 2.784 2.784 2 3.75 2h1.5a.75.75 0 0 1 0 1.5zM18 2.75a.75.75 0 0 1 .75-.75h1.5c.966 0 1.75.784 1.75 1.75v1.5a.75.75 0 1 1-1.5 0v-1.5a.25.25 0 0 0-.25-.25h-1.5a.75.75 0 0 1-.75-.75"/></svg>