<?xml version="1.0" encoding="UTF-8"?>
<svg width="10px" height="10px" viewBox="0 0 10 10" version="1.1" xmlns="http://www.w3.org/2000/svg" xmlns:xlink="http://www.w3.org/1999/xlink">
    <title>Assets/Infrastructure/Detector_</title>
    <defs>
        <path d="M0,0 L10,0 L10,10 L0,10 L0,0 Z" id="path-1"/>
    </defs>
    <g id="Assets/Infrastructure/Detector_" stroke="none" fill="none" xlink:href="#path-1" fill-rule="evenodd">
        <use fill="#FFFFFF" xlink:href="#path-1"/>
        <g id="Group" stroke-width="1">
            <circle id="Oval-3" fill="#0058CF" cx="5" cy="5" r="1.5"/>
            <path d="M5,2.5 C6.38071187,2.5 7.5,3.61928813 7.5,5 C7.5,6.38071187 6.38071187,7.5 5,7.5 C3.61928813,7.5 2.5,6.38071187 2.5,5 C2.5,3.61928813 3.61928813,2.5 5,2.5 Z M5,3.5 C4.17157288,3.5 3.5,4.17157288 3.5,5 C3.5,5.82842712 4.17157288,6.5 5,6.5 C5.82842712,6.5 6.5,5.82842712 6.5,5 C6.5,4.17157288 5.82842712,3.5 5,3.5 Z" id="Oval-4" fill="#FFFFFF" opacity="0.749521169"/>
            <path d="M5,1.5 C6.93299662,1.5 8.5,3.06700338 8.5,5 C8.5,6.93299662 6.93299662,8.5 5,8.5 C3.06700338,8.5 1.5,6.93299662 1.5,5 C1.5,3.06700338 3.06700338,1.5 5,1.5 Z M5,2.5 C3.61928813,2.5 2.5,3.61928813 2.5,5 C2.5,6.38071187 3.61928813,7.5 5,7.5 C6.38071187,7.5 7.5,6.38071187 7.5,5 C7.5,3.61928813 6.38071187,2.5 5,2.5 Z" id="Oval-4" fill="#006CFF" opacity="0.702772177"/>
            <path d="M5,0.5 C7.48528137,0.5 9.5,2.51471863 9.5,5 C9.5,7.48528137 7.48528137,9.5 5,9.5 C2.51471863,9.5 0.5,7.48528137 0.5,5 C0.5,2.51471863 2.51471863,0.5 5,0.5 Z M5,1.5 C3.06700338,1.5 1.5,3.06700338 1.5,5 C1.5,6.93299662 3.06700338,8.5 5,8.5 C6.93299662,8.5 8.5,6.93299662 8.5,5 C8.5,3.06700338 6.93299662,1.5 5,1.5 Z" id="Oval-4" fill="#FFFFFF" opacity="0.749470766"/>
            <path d="M5,0 C7.76142375,0 10,2.23857625 10,5 C10,7.76142375 7.76142375,10 5,10 C2.23857625,10 0,7.76142375 0,5 C0,2.23857625 2.23857625,0 5,0 Z M5,0.5 C2.51471863,0.5 0.5,2.51471863 0.5,5 C0.5,7.48528137 2.51471863,9.5 5,9.5 C7.48528137,9.5 9.5,7.48528137 9.5,5 C9.5,2.51471863 7.48528137,0.5 5,0.5 Z" id="Oval-4" fill="#006CFF" opacity="0.499143145"/>
        </g>
    </g>
</svg>